<mxfile host="app.diagrams.net" modified="2020-07-08T07:19:33.015Z" agent="5.0 (Windows NT 10.0; Win64; x64) AppleWebKit/537.36 (KHTML, like Gecko) Chrome/68.0.3440.75 Safari/537.36" etag="f3RVeGbeXW9t1Cnm-8fo" version="13.3.7" type="github">
  <diagram name="Page-1" id="13e1069c-82ec-6db2-03f1-153e76fe0fe0">
    <mxGraphModel dx="1422" dy="750" grid="1" gridSize="10" guides="1" tooltips="1" connect="1" arrows="1" fold="1" page="1" pageScale="1" pageWidth="1100" pageHeight="850" background="#ffffff" math="0" shadow="0">
      <root>
        <object label="" id="0">
          <mxCell />
        </object>
        <mxCell id="1" parent="0" />
        <mxCell id="7baba1c4bc27f4b0-2" value="H5" style="html=1;points=[];perimeter=orthogonalPerimeter;shape=umlLifeline;participant=label;shadow=0;fontFamily=Verdana;fontSize=12;fontColor=#000000;align=center;strokeColor=#000000;strokeWidth=1;fillColor=#ffffff;recursiveResize=0;container=1;collapsible=0;comic=0;sketch=1;" parent="1" vertex="1">
          <mxGeometry x="240" y="80" width="100" height="1040" as="geometry" />
        </mxCell>
        <mxCell id="7baba1c4bc27f4b0-10" value="" style="html=1;points=[];perimeter=orthogonalPerimeter;rounded=0;shadow=0;comic=0;labelBackgroundColor=none;strokeWidth=1;fontFamily=Verdana;fontSize=12;align=center;sketch=1;" parent="7baba1c4bc27f4b0-2" vertex="1">
          <mxGeometry x="45" y="100" width="10" height="320" as="geometry" />
        </mxCell>
        <mxCell id="kzwuRr9ksuQ_YpCP-fQW-10" value="" style="html=1;points=[];perimeter=orthogonalPerimeter;sketch=1;fontFamily=Helvetica;fontSize=19;" parent="7baba1c4bc27f4b0-2" vertex="1">
          <mxGeometry x="45" y="466" width="10" height="374" as="geometry" />
        </mxCell>
        <mxCell id="kzwuRr9ksuQ_YpCP-fQW-13" value="" style="html=1;points=[];perimeter=orthogonalPerimeter;sketch=1;fontFamily=Helvetica;fontSize=12;fillColor=#f8cecc;strokeColor=#b85450;" parent="7baba1c4bc27f4b0-2" vertex="1">
          <mxGeometry x="55" y="390" width="10" height="10" as="geometry" />
        </mxCell>
        <mxCell id="kzwuRr9ksuQ_YpCP-fQW-14" value="跳转支付选择页" style="edgeStyle=orthogonalEdgeStyle;html=1;align=left;spacingLeft=2;endArrow=block;rounded=0;entryX=1;entryY=0;fontFamily=Helvetica;fontSize=12;sketch=1;curved=1;" parent="7baba1c4bc27f4b0-2" target="kzwuRr9ksuQ_YpCP-fQW-13" edge="1">
          <mxGeometry relative="1" as="geometry">
            <mxPoint x="60" y="370" as="sourcePoint" />
            <Array as="points">
              <mxPoint x="80" y="370" />
              <mxPoint x="80" y="390" />
            </Array>
          </mxGeometry>
        </mxCell>
        <mxCell id="7baba1c4bc27f4b0-3" value="API" style="shape=umlLifeline;perimeter=lifelinePerimeter;whiteSpace=wrap;html=1;container=1;collapsible=0;recursiveResize=0;outlineConnect=0;rounded=1;shadow=0;comic=0;labelBackgroundColor=none;strokeWidth=1;fontFamily=Verdana;fontSize=12;align=center;sketch=1;" parent="1" vertex="1">
          <mxGeometry x="400" y="80" width="140" height="1040" as="geometry" />
        </mxCell>
        <mxCell id="7baba1c4bc27f4b0-13" value="" style="html=1;points=[];perimeter=orthogonalPerimeter;rounded=0;shadow=0;comic=0;labelBackgroundColor=none;strokeWidth=1;fontFamily=Verdana;fontSize=12;align=center;sketch=1;" parent="7baba1c4bc27f4b0-3" vertex="1">
          <mxGeometry x="65" y="120" width="10" height="260" as="geometry" />
        </mxCell>
        <mxCell id="kzwuRr9ksuQ_YpCP-fQW-65" value="" style="html=1;points=[];perimeter=orthogonalPerimeter;sketch=1;fontFamily=Helvetica;fontSize=12;spacing=2;fillColor=#f8cecc;strokeColor=#b85450;" parent="7baba1c4bc27f4b0-3" vertex="1">
          <mxGeometry x="75" y="170" width="10" height="10" as="geometry" />
        </mxCell>
        <object label="保存订单" id="kzwuRr9ksuQ_YpCP-fQW-66">
          <mxCell style="edgeStyle=orthogonalEdgeStyle;html=1;align=left;spacingLeft=2;endArrow=block;rounded=0;entryX=1;entryY=0;fontFamily=Helvetica;fontSize=12;sketch=1;spacing=2;endSize=1;exitX=1.1;exitY=0.15;exitDx=0;exitDy=0;exitPerimeter=0;" parent="7baba1c4bc27f4b0-3" source="7baba1c4bc27f4b0-13" target="kzwuRr9ksuQ_YpCP-fQW-65" edge="1">
            <mxGeometry relative="1" as="geometry">
              <mxPoint x="80" y="150" as="sourcePoint" />
              <Array as="points">
                <mxPoint x="105" y="150" />
                <mxPoint x="105" y="170" />
              </Array>
            </mxGeometry>
          </mxCell>
        </object>
        <mxCell id="kzwuRr9ksuQ_YpCP-fQW-2" value="" style="html=1;points=[];perimeter=orthogonalPerimeter;sketch=1;fontFamily=Helvetica;fontSize=19;fillColor=#f8cecc;strokeColor=#b85450;" parent="7baba1c4bc27f4b0-3" vertex="1">
          <mxGeometry x="75" y="312" width="10" height="8" as="geometry" />
        </mxCell>
        <mxCell id="kzwuRr9ksuQ_YpCP-fQW-3" value="查询订单" style="edgeStyle=orthogonalEdgeStyle;html=1;align=left;spacingLeft=2;endArrow=block;rounded=0;entryX=1;entryY=0;fontFamily=Helvetica;fontSize=12;exitX=1.1;exitY=0.633;exitDx=0;exitDy=0;exitPerimeter=0;sketch=1;curved=1;" parent="7baba1c4bc27f4b0-3" source="7baba1c4bc27f4b0-13" target="kzwuRr9ksuQ_YpCP-fQW-2" edge="1">
          <mxGeometry relative="1" as="geometry">
            <mxPoint x="80" y="292" as="sourcePoint" />
            <Array as="points">
              <mxPoint x="100" y="285" />
              <mxPoint x="100" y="312" />
            </Array>
          </mxGeometry>
        </mxCell>
        <mxCell id="kzwuRr9ksuQ_YpCP-fQW-15" value="" style="html=1;points=[];perimeter=orthogonalPerimeter;sketch=1;fontFamily=Helvetica;fontSize=12;" parent="7baba1c4bc27f4b0-3" vertex="1">
          <mxGeometry x="65" y="500" width="10" height="130" as="geometry" />
        </mxCell>
        <mxCell id="kzwuRr9ksuQ_YpCP-fQW-40" value="" style="html=1;points=[];perimeter=orthogonalPerimeter;sketch=1;fontFamily=Helvetica;fontSize=12;" parent="7baba1c4bc27f4b0-3" vertex="1">
          <mxGeometry x="65" y="849" width="10" height="101" as="geometry" />
        </mxCell>
        <mxCell id="kzwuRr9ksuQ_YpCP-fQW-42" value="" style="html=1;points=[];perimeter=orthogonalPerimeter;sketch=1;fontFamily=Helvetica;fontSize=12;fillColor=#f8cecc;strokeColor=#b85450;" parent="7baba1c4bc27f4b0-3" vertex="1">
          <mxGeometry x="75" y="890" width="10" height="20" as="geometry" />
        </mxCell>
        <mxCell id="kzwuRr9ksuQ_YpCP-fQW-43" value="更新数据库状态" style="edgeStyle=orthogonalEdgeStyle;html=1;align=left;spacingLeft=2;endArrow=block;rounded=0;entryX=1;entryY=0;fontFamily=Helvetica;fontSize=12;sketch=1;" parent="7baba1c4bc27f4b0-3" target="kzwuRr9ksuQ_YpCP-fQW-42" edge="1">
          <mxGeometry relative="1" as="geometry">
            <mxPoint x="80" y="870" as="sourcePoint" />
            <Array as="points">
              <mxPoint x="105" y="870" />
            </Array>
          </mxGeometry>
        </mxCell>
        <mxCell id="7baba1c4bc27f4b0-4" value="微信支付后台" style="shape=umlLifeline;perimeter=lifelinePerimeter;whiteSpace=wrap;html=1;container=1;collapsible=0;recursiveResize=0;outlineConnect=0;rounded=1;shadow=0;comic=0;labelBackgroundColor=none;strokeWidth=1;fontFamily=Verdana;fontSize=12;align=center;sketch=1;" parent="1" vertex="1">
          <mxGeometry x="670" y="80" width="100" height="1040" as="geometry" />
        </mxCell>
        <mxCell id="kzwuRr9ksuQ_YpCP-fQW-16" value="" style="html=1;points=[];perimeter=orthogonalPerimeter;sketch=1;fontFamily=Helvetica;fontSize=12;" parent="7baba1c4bc27f4b0-4" vertex="1">
          <mxGeometry x="45" y="536" width="10" height="44" as="geometry" />
        </mxCell>
        <mxCell id="7baba1c4bc27f4b0-5" value="微信客户端" style="shape=umlLifeline;perimeter=lifelinePerimeter;whiteSpace=wrap;html=1;container=1;collapsible=0;recursiveResize=0;outlineConnect=0;rounded=1;shadow=0;comic=0;labelBackgroundColor=none;strokeWidth=1;fontFamily=Verdana;fontSize=12;align=center;sketch=1;" parent="1" vertex="1">
          <mxGeometry x="850" y="80" width="100" height="1040" as="geometry" />
        </mxCell>
        <mxCell id="kzwuRr9ksuQ_YpCP-fQW-25" value="" style="html=1;points=[];perimeter=orthogonalPerimeter;sketch=1;fontFamily=Helvetica;fontSize=12;fillColor=#f8cecc;strokeColor=#b85450;" parent="7baba1c4bc27f4b0-5" vertex="1">
          <mxGeometry x="54" y="781" width="10" height="8" as="geometry" />
        </mxCell>
        <mxCell id="kzwuRr9ksuQ_YpCP-fQW-26" value="pay" style="edgeStyle=orthogonalEdgeStyle;html=1;align=left;spacingLeft=2;endArrow=block;rounded=0;entryX=1;entryY=0;fontFamily=Helvetica;fontSize=12;sketch=1;" parent="7baba1c4bc27f4b0-5" source="kzwuRr9ksuQ_YpCP-fQW-27" target="kzwuRr9ksuQ_YpCP-fQW-25" edge="1">
          <mxGeometry relative="1" as="geometry">
            <mxPoint x="55" y="761" as="sourcePoint" />
            <Array as="points">
              <mxPoint x="80" y="761" />
            </Array>
          </mxGeometry>
        </mxCell>
        <mxCell id="kzwuRr9ksuQ_YpCP-fQW-27" value="" style="html=1;points=[];perimeter=orthogonalPerimeter;sketch=1;fontFamily=Helvetica;fontSize=12;" parent="7baba1c4bc27f4b0-5" vertex="1">
          <mxGeometry x="45" y="739" width="10" height="110" as="geometry" />
        </mxCell>
        <mxCell id="7baba1c4bc27f4b0-11" value="用户操作下单" style="html=1;verticalAlign=bottom;endArrow=block;entryX=0;entryY=0;labelBackgroundColor=none;fontFamily=Verdana;fontSize=12;edgeStyle=elbowEdgeStyle;elbow=vertical;exitX=0.5;exitY=0;exitDx=0;exitDy=0;exitPerimeter=0;sketch=1;" parent="1" source="kzwuRr9ksuQ_YpCP-fQW-6" target="7baba1c4bc27f4b0-10" edge="1">
          <mxGeometry relative="1" as="geometry">
            <mxPoint x="155" y="180" as="sourcePoint" />
          </mxGeometry>
        </mxCell>
        <mxCell id="7baba1c4bc27f4b0-14" value="createOrder" style="html=1;verticalAlign=bottom;endArrow=block;entryX=0;entryY=0;labelBackgroundColor=none;fontFamily=Verdana;fontSize=12;edgeStyle=elbowEdgeStyle;elbow=vertical;sketch=1;" parent="1" source="7baba1c4bc27f4b0-10" target="7baba1c4bc27f4b0-13" edge="1">
          <mxGeometry relative="1" as="geometry">
            <mxPoint x="370" y="200" as="sourcePoint" />
            <mxPoint as="offset" />
          </mxGeometry>
        </mxCell>
        <mxCell id="kzwuRr9ksuQ_YpCP-fQW-5" value="" style="shape=umlLifeline;participant=umlActor;perimeter=lifelinePerimeter;whiteSpace=wrap;html=1;container=1;collapsible=0;recursiveResize=0;verticalAlign=top;spacingTop=36;outlineConnect=0;sketch=1;" parent="1" vertex="1">
          <mxGeometry x="90" y="80" width="20" height="1040" as="geometry" />
        </mxCell>
        <mxCell id="kzwuRr9ksuQ_YpCP-fQW-6" value="" style="html=1;points=[];perimeter=orthogonalPerimeter;sketch=1;" parent="kzwuRr9ksuQ_YpCP-fQW-5" vertex="1">
          <mxGeometry x="5" y="110" width="10" height="800" as="geometry" />
        </mxCell>
        <mxCell id="kzwuRr9ksuQ_YpCP-fQW-36" value="返回订单号" style="html=1;verticalAlign=bottom;endArrow=open;dashed=1;endSize=8;sketch=1;exitX=-0.2;exitY=0.289;exitDx=0;exitDy=0;exitPerimeter=0;" parent="1" edge="1">
          <mxGeometry x="0.0557" relative="1" as="geometry">
            <mxPoint x="463" y="271.1400000000001" as="sourcePoint" />
            <mxPoint x="300" y="271" as="targetPoint" />
            <mxPoint as="offset" />
            <Array as="points" />
          </mxGeometry>
        </mxCell>
        <mxCell id="kzwuRr9ksuQ_YpCP-fQW-7" value="querOrder()" style="html=1;verticalAlign=bottom;endArrow=block;entryX=0;entryY=0;labelBackgroundColor=none;fontFamily=Verdana;fontSize=12;edgeStyle=elbowEdgeStyle;elbow=vertical;sketch=1;" parent="1" edge="1">
          <mxGeometry relative="1" as="geometry">
            <mxPoint x="299" y="325" as="sourcePoint" />
            <mxPoint as="offset" />
            <mxPoint x="469" y="325" as="targetPoint" />
          </mxGeometry>
        </mxCell>
        <mxCell id="kzwuRr9ksuQ_YpCP-fQW-1" value="返回订单信息" style="html=1;verticalAlign=bottom;endArrow=open;dashed=1;endSize=8;sketch=1;entryX=1.1;entryY=0.9;entryDx=0;entryDy=0;entryPerimeter=0;" parent="1" edge="1">
          <mxGeometry x="0.0557" relative="1" as="geometry">
            <mxPoint x="469.5" y="415" as="sourcePoint" />
            <mxPoint x="296" y="415" as="targetPoint" />
            <mxPoint as="offset" />
            <Array as="points" />
          </mxGeometry>
        </mxCell>
        <mxCell id="kzwuRr9ksuQ_YpCP-fQW-4" value="用户选择支付方式" style="html=1;verticalAlign=bottom;endArrow=block;labelBackgroundColor=none;fontFamily=Verdana;fontSize=12;edgeStyle=elbowEdgeStyle;elbow=vertical;sketch=1;entryX=-0.2;entryY=0.029;entryDx=0;entryDy=0;entryPerimeter=0;" parent="1" target="kzwuRr9ksuQ_YpCP-fQW-10" edge="1">
          <mxGeometry y="-5" relative="1" as="geometry">
            <mxPoint x="110" y="551" as="sourcePoint" />
            <mxPoint x="260" y="538" as="targetPoint" />
            <mxPoint x="-5" y="-5" as="offset" />
            <Array as="points">
              <mxPoint x="110" y="551" />
              <mxPoint x="280" y="550" />
              <mxPoint x="280" y="542" />
              <mxPoint x="280" y="542" />
            </Array>
          </mxGeometry>
        </mxCell>
        <mxCell id="kzwuRr9ksuQ_YpCP-fQW-12" value="支付唤醒接口-wxPay/orderApply" style="html=1;verticalAlign=bottom;endArrow=block;fontFamily=Helvetica;fontSize=12;exitX=1.1;exitY=0.863;exitDx=0;exitDy=0;exitPerimeter=0;sketch=1;" parent="1" edge="1">
          <mxGeometry width="80" relative="1" as="geometry">
            <mxPoint x="296" y="577.9999999999999" as="sourcePoint" />
            <mxPoint x="469.5" y="577.9999999999999" as="targetPoint" />
          </mxGeometry>
        </mxCell>
        <mxCell id="kzwuRr9ksuQ_YpCP-fQW-17" value="调用微信统一下单接口，传入异步回调地址" style="html=1;verticalAlign=bottom;endArrow=block;fontFamily=Helvetica;fontSize=12;exitX=1.1;exitY=0.863;exitDx=0;exitDy=0;exitPerimeter=0;sketch=1;" parent="1" edge="1">
          <mxGeometry width="80" relative="1" as="geometry">
            <mxPoint x="480" y="616" as="sourcePoint" />
            <mxPoint x="719.5" y="616" as="targetPoint" />
          </mxGeometry>
        </mxCell>
        <mxCell id="kzwuRr9ksuQ_YpCP-fQW-18" value="返回支付唤醒地址" style="html=1;verticalAlign=bottom;endArrow=open;dashed=1;endSize=8;fontFamily=Helvetica;fontSize=12;sketch=1;" parent="1" edge="1">
          <mxGeometry relative="1" as="geometry">
            <mxPoint x="715" y="656" as="sourcePoint" />
            <mxPoint x="474.5" y="656" as="targetPoint" />
            <Array as="points">
              <mxPoint x="595" y="656" />
            </Array>
          </mxGeometry>
        </mxCell>
        <mxCell id="kzwuRr9ksuQ_YpCP-fQW-20" value="返回唤醒地址" style="html=1;verticalAlign=bottom;endArrow=open;dashed=1;endSize=8;fontFamily=Helvetica;fontSize=12;sketch=1;" parent="1" edge="1">
          <mxGeometry relative="1" as="geometry">
            <mxPoint x="460" y="680" as="sourcePoint" />
            <mxPoint x="297" y="680" as="targetPoint" />
          </mxGeometry>
        </mxCell>
        <mxCell id="kzwuRr9ksuQ_YpCP-fQW-21" value="发起付款（传入页面回调地址）" style="html=1;verticalAlign=bottom;endArrow=block;fontFamily=Helvetica;fontSize=12;sketch=1;" parent="1" edge="1">
          <mxGeometry width="80" relative="1" as="geometry">
            <mxPoint x="290" y="819" as="sourcePoint" />
            <mxPoint x="899.5" y="819" as="targetPoint" />
          </mxGeometry>
        </mxCell>
        <mxCell id="kzwuRr9ksuQ_YpCP-fQW-22" value="跳转到支付完成页面" style="html=1;verticalAlign=bottom;endArrow=open;dashed=1;endSize=8;fontFamily=Helvetica;fontSize=12;exitX=0.46;exitY=0.75;exitDx=0;exitDy=0;exitPerimeter=0;entryX=0.54;entryY=0.815;entryDx=0;entryDy=0;entryPerimeter=0;sketch=1;" parent="1" edge="1">
          <mxGeometry relative="1" as="geometry">
            <mxPoint x="896" y="898" as="sourcePoint" />
            <mxPoint x="294" y="896.5999999999999" as="targetPoint" />
          </mxGeometry>
        </mxCell>
        <mxCell id="kzwuRr9ksuQ_YpCP-fQW-39" value="异步回调" style="html=1;verticalAlign=bottom;endArrow=block;fontFamily=Helvetica;fontSize=12;entryX=0.7;entryY=0.01;entryDx=0;entryDy=0;entryPerimeter=0;sketch=1;" parent="1" source="7baba1c4bc27f4b0-5" target="kzwuRr9ksuQ_YpCP-fQW-40" edge="1">
          <mxGeometry width="80" relative="1" as="geometry">
            <mxPoint x="760" y="930" as="sourcePoint" />
            <mxPoint x="480" y="930" as="targetPoint" />
          </mxGeometry>
        </mxCell>
      </root>
    </mxGraphModel>
  </diagram>
</mxfile>
